<?xml version="1.0" encoding="utf-8"?>
<!-- Generator: Adobe Illustrator 15.1.0, SVG Export Plug-In . SVG Version: 6.00 Build 0)  -->
<!DOCTYPE svg PUBLIC "-//W3C//DTD SVG 1.1//EN" "http://www.w3.org/Graphics/SVG/1.1/DTD/svg11.dtd">
<svg version="1.1" id="Layer_1" xmlns="http://www.w3.org/2000/svg" xmlns:xlink="http://www.w3.org/1999/xlink" x="0px" y="0px"
	 width="595.28px" height="841.89px" viewBox="0 0 595.28 841.89" enable-background="new 0 0 595.28 841.89" xml:space="preserve">
<g>
	<path fill-rule="evenodd" clip-rule="evenodd" fill="#426731" d="M127.369,345.729c5.646-12.657,11.923-23.387,19.491-34.335
		c3.785-5.475,5.578-13.303,4.197-21.59c-1.241-7.457-4.724-13.139-9.445-17.542c-4.712-4.396-10.523-7.101-18.891-8.096
		c-1.399,0-2.799,0-4.199,0c-15.714,1.125-23.231,12.65-30.136,23.54c-17.228,27.169-30.313,59.64-35.234,98.805
		c-1.007,8.015-1.583,16.652-1.949,25.188c0,3.999,0,7.997,0,11.995c1.807,48.813,15.602,86.484,34.634,118.297
		c6.417,10.725,13.455,21.11,28.938,22.04c1.199,0,2.398,0,3.598,0c15.683-1.841,25.715-11.166,28.638-25.188
		c1.67-8.021-0.391-16.27-3.898-21.74c-10.823-16.878-19.331-34.288-24.739-56.075c-1.785-7.191-3.51-14.715-4.348-22.64
		c-0.861-8.15-0.9-16.937-0.9-26.088c0-17.274,3.188-32.5,7.348-46.479C122.581,358.731,124.6,351.935,127.369,345.729z"/>
	<path fill-rule="evenodd" clip-rule="evenodd" fill="#426731" d="M518.843,324.739c-5.076-12.791-11.417-25.046-18.442-36.284
		c-6.964-11.14-14.19-23.044-30.436-24.289c-1.399,0-2.799,0-4.198,0c-8.19,0.97-14.174,3.636-18.892,8.096
		c-4.646,4.393-8.346,10.138-9.596,17.393c-1.432,8.302,0.661,16.386,4.348,21.74c11.202,16.27,20.178,32.667,26.388,54.276
		c4.064,14.139,7.347,29.352,7.347,46.479c0.001,9.185-0.067,17.898-0.899,26.088c-0.802,7.895-2.563,15.453-4.347,22.64
		c-3.514,14.151-8.406,27.259-14.694,39.132c-2.891,5.458-6.315,11.136-10.046,16.942c-3.484,5.428-5.611,13.182-3.896,21.74
		c1.432,7.156,4.702,12.754,9.745,17.242c4.685,4.171,10.714,7.575,18.892,8.097c1.199,0,2.398,0,3.598,0
		c15.471-1.033,22.882-11.503,29.236-22.34c19.131-32.625,32.871-70.955,34.335-120.696c0-1.799,0-3.599,0-5.398
		C536.973,380.279,529.096,350.577,518.843,324.739z"/>
	<path fill-rule="evenodd" clip-rule="evenodd" fill="#426731" d="M378.656,331.335c-6.943-0.084-11.899,2.674-15.443,5.998
		c-5.348,5.016-9.441,14.254-6.298,23.839c0.888,2.706,2.489,4.495,4.049,6.747c9.021,13.033,15.544,27.778,16.042,48.578
		c0.318,13.329-2.933,25.634-7.646,35.384c-4.604,9.526-10.373,17.895-17.992,25.039c-14.717,13.803-34.838,24.098-62.971,22.791
		c-12.646-0.589-24.215-4.697-33.286-9.746c-4.665-2.598-8.984-5.244-12.894-8.547c-11.506-9.719-21.595-22.457-26.538-38.082
		c-1.601-5.059-3.394-11.326-3.898-17.543c-2.099-25.812,5.985-44.129,16.192-58.474c4.353-6.115,10.61-11.647,8.396-23.089
		c-2.168-11.208-11.755-19.293-25.039-17.992c-6.958,0.681-10.448,3.62-13.944,7.796c-16.357,19.551-29.102,43.32-30.585,77.066
		c-0.606,13.791,0.92,27.485,3.898,38.831c5.787,22.053,17.036,41.026,31.036,55.025c14.665,14.666,31.036,26.568,52.626,33.436
		c10.958,3.485,23.531,6.147,36.883,6.147c42.459,0,71.403-15.178,92.658-36.434c13.832-13.831,25.939-32.087,32.537-53.526
		c3.428-11.146,5.548-24.102,5.547-37.482c-0.002-27.375-8.482-50.108-19.042-67.02
		C397.666,341.623,392.004,331.498,378.656,331.335z"/>
	<path fill-rule="evenodd" clip-rule="evenodd" fill="#426731" d="M273.702,439.588c5.175,4.735,13.139,8.424,22.341,7.795
		c8.719-0.594,15.543-4.307,20.54-9.744c4.702-5.116,8.644-12.558,7.946-22.191c-0.663-9.168-4.518-15.954-9.595-20.69
		c-4.893-4.563-13.109-8.641-22.491-7.947c-9.423,0.697-15.857,4.742-20.69,9.896c-4.559,4.861-8.551,12.396-7.797,22.34
		C264.638,428.014,268.288,434.631,273.702,439.588z"/>
</g>
</svg>
