<?xml version="1.0" encoding="UTF-8" standalone="no"?>
<!-- Created with Inkscape (http://www.inkscape.org/) -->

<svg
   xmlns:dc="http://purl.org/dc/elements/1.1/"
   xmlns:cc="http://creativecommons.org/ns#"
   xmlns:rdf="http://www.w3.org/1999/02/22-rdf-syntax-ns#"
   xmlns:svg="http://www.w3.org/2000/svg"
   xmlns="http://www.w3.org/2000/svg"
   xmlns:sodipodi="http://sodipodi.sourceforge.net/DTD/sodipodi-0.dtd"
   xmlns:inkscape="http://www.inkscape.org/namespaces/inkscape"
   width="461"
   height="221"
   id="svg4025"
   version="1.1"
   inkscape:version="0.48.4 r9939"
   sodipodi:docname="open-money-gift-text-vector.svg">
  <defs
     id="defs4027" />
  <sodipodi:namedview
     id="base"
     pagecolor="#ffffff"
     bordercolor="#666666"
     borderopacity="1.0"
     inkscape:pageopacity="0.0"
     inkscape:pageshadow="2"
     inkscape:zoom="2.8"
     inkscape:cx="200.06161"
     inkscape:cy="121.8776"
     inkscape:document-units="px"
     inkscape:current-layer="layer1"
     showgrid="false"
     inkscape:window-width="1920"
     inkscape:window-height="1056"
     inkscape:window-x="0"
     inkscape:window-y="24"
     inkscape:window-maximized="1" />
  <metadata
     id="metadata4030">
    <rdf:RDF>
      <cc:Work
         rdf:about="">
        <dc:format>image/svg+xml</dc:format>
        <dc:type
           rdf:resource="http://purl.org/dc/dcmitype/StillImage" />
        <dc:title></dc:title>
      </cc:Work>
    </rdf:RDF>
  </metadata>
  <g
     inkscape:label="Layer 1"
     inkscape:groupmode="layer"
     id="layer1"
     transform="translate(0,-831.36218)">
    <path
       style="fill:#2d882d;fill-opacity:1"
       inkscape:connector-curvature="0"
       id="path57"
       d="m 338.70891,869.15471 c 5.62,2.517 10.383,5.31 15.247,8.679 2.428,1.685 5.905,2.487 9.59,1.876 3.313,-0.547 5.839,-2.091 7.8,-4.185 1.954,-2.092 3.16,-4.673 3.606,-8.391 10e-4,-0.622 0.002,-1.245 0.003,-1.866 -0.49,-6.983 -5.611,-10.329 -10.445,-13.404 -12.064,-7.667 -26.485,-13.501 -43.884,-15.708 -3.56,-0.453 -7.399,-0.709 -11.19,-0.879 -1.779,-10e-4 -3.553,-0.004 -5.331,-0.007 -21.688,0.776 -38.436,6.89 -52.582,15.326 -4.768,2.847 -9.386,5.967 -9.805,12.847 -0.002,0.532 -0.002,1.065 -0.003,1.601 0.81,6.968 4.948,11.432 11.177,12.738 3.562,0.746 7.229,-0.164 9.661,-1.722 7.508,-4.799 15.245,-8.57 24.931,-10.961 3.195,-0.791 6.539,-1.553 10.062,-1.922 3.62,-0.375 7.525,-0.392 11.593,-0.387 7.678,0.009 14.438,1.436 20.647,3.293 3.149,0.936 6.167,1.838 8.923,3.072 z" />
    <path
       style="fill:#2d882d;fill-opacity:1"
       inkscape:connector-curvature="0"
       id="path59"
       d="m 347.82791,1043.1127 c 5.686,-2.25 11.135,-5.061 16.133,-8.173 4.951,-3.09 10.247,-6.295 10.809,-13.513 0.001,-0.623 0.002,-1.244 0.004,-1.864 -0.428,-3.641 -1.611,-6.301 -3.591,-8.397 -1.949,-2.068 -4.501,-3.715 -7.722,-4.276 -3.689,-0.64 -7.279,0.287 -9.664,1.921 -7.234,4.969 -14.524,8.947 -24.131,11.697 -6.282,1.799 -13.042,3.25 -20.655,3.241 -4.079,-0 -7.951,-0.042 -11.59,-0.417 -3.511,-0.36 -6.866,-1.148 -10.06,-1.941 -6.284,-1.567 -12.108,-3.751 -17.38,-6.551 -2.423,-1.288 -4.944,-2.812 -7.521,-4.473 -2.411,-1.549 -5.856,-2.499 -9.658,-1.742 -3.18,0.633 -5.67,2.083 -7.667,4.324 -1.854,2.079 -3.37,4.755 -3.605,8.389 -0.001,0.529 -0.003,1.065 -0.003,1.599 0.449,6.875 5.1,10.172 9.909,13.001 14.484,8.52 31.512,14.644 53.613,15.323 0.798,0 1.598,10e-4 2.398,10e-4 15.693,-0.122 28.893,-3.607 40.381,-8.149 z" />
    <circle
       d="m 310.04401,171.666 c 0,6.61251 -5.36049,11.973 -11.973,11.973 -6.6125,0 -11.973,-5.36049 -11.973,-11.973 0,-6.6125 5.3605,-11.973 11.973,-11.973 6.61251,0 11.973,5.3605 11.973,11.973 z"
       style="fill:#2d882d;fill-opacity:1"
       sodipodi:ry="11.973"
       sodipodi:rx="11.973"
       sodipodi:cy="171.666"
       sodipodi:cx="298.07101"
       id="circle61"
       r="11.973"
       cy="171.666"
       cx="298.07101"
       transform="translate(10.599908,772.50971)" />
    <path
       style="fill:#aa3939;fill-opacity:1"
       inkscape:connector-curvature="0"
       id="path63"
       d="m 353.31991,945.86171 c -1.59,-2.278 -4.059,-5.802 -8.902,-5.911 -3.434,-0.528 -9.719,0.367 -9.719,0.367 -4.068,-0.398 -7.705,2.75 -8.125,7.032 l -0.668,3.665 c -0.275,2.808 0.908,5.4 2.9,6.968 l -0.234,0.188 h 0.475 c 0.74,0.536 4.014,2.909 3.486,6.607 l -0.982,4.995 c -3.514,1.788 -7.014,3.207 -10.424,4.224 -3.807,1.136 -7.949,1.712 -12.307,1.712 -8.791,0 -15.416,-2.757 -20.25,-8.43 -4.884,-5.726 -7.359,-14.162 -7.359,-25.075 0,-5.071 0.654,-9.738 1.94,-13.869 1.259,-4.042 3.079,-7.482 5.419,-10.226 2.305,-2.706 5.121,-4.8 8.371,-6.226 3.283,-1.438 7.1,-2.169 11.34,-2.169 4.08,0 7.432,0.596 9.957,1.769 2.533,1.182 4.557,2.627 5.998,4.301 1.625,1.881 3.662,4.737 6.064,8.488 0.033,0.055 0.07,0.108 0.107,0.16 1.164,1.567 2.621,2.808 4.344,3.679 1.725,0.88 3.559,1.325 5.447,1.325 3.355,0 6.277,-1.162 8.688,-3.454 2.447,-2.331 3.688,-5.194 3.688,-8.515 0,-2.849 -0.908,-5.922 -2.775,-9.401 -1.787,-3.327 -4.453,-6.5 -7.916,-9.425 -3.459,-2.923 -7.977,-5.364 -13.436,-7.255 -5.426,-1.879 -11.711,-2.832 -18.68,-2.832 -8.428,0 -16.1,1.254 -22.797,3.733 -6.771,2.502 -12.607,6.176 -17.352,10.918 -4.747,4.747 -8.39,10.593 -10.825,17.374 -2.402,6.692 -3.622,14.149 -3.622,22.166 0,8.163 1.258,15.675 3.736,22.333 2.499,6.719 6.147,12.529 10.838,17.265 4.695,4.746 10.441,8.41 17.076,10.891 6.572,2.458 13.926,3.703 21.865,3.703 6.766,0 13.123,-0.785 18.891,-2.333 5.746,-1.542 11.787,-4.018 17.965,-7.361 2.266,-1.231 4.176,-2.551 5.674,-3.922 1.688,-1.543 2.871,-3.327 3.52,-5.3 0.6,-1.816 0.887,-4.088 0.887,-6.945 v -15.873 c -10e-4,-4.061 -0.751,-7.115 -2.303,-9.341 z" />
    <text
       style="font-size:45.770401px;letter-spacing:-2;fill:#55aa55;fill-opacity:1;font-family:HelveticaNeue-Light"
       id="text67"
       letter-spacing="-2"
       font-size="45.7704"
       x="14.927579"
       y="968.55225">open</text>
    <text
       font-size="43.7564"
       letter-spacing="-2"
       id="text77"
       style="font-size:43.75640106px;letter-spacing:-2;fill:#2d882d;fill-opacity:1;font-family:ArialRoundedMTBold"
       x="112.73302"
       y="968.63885">money</text>
    <g
       id="g3921"
       transform="translate(90.68876,580.17034)">
      <path
         d="m 288.253,333.736 c -1.89,0 -3.459,0.671 -4.665,1.993 -1.178,1.295 -1.777,3.199 -1.777,5.661 v 42.447 c 0,2.463 0.605,4.373 1.796,5.68 1.219,1.334 2.78,2.011 4.646,2.011 1.935,0 3.534,-0.669 4.752,-1.988 1.194,-1.296 1.798,-3.214 1.798,-5.702 V 341.39 c 0,-2.49 -0.605,-4.404 -1.803,-5.688 -1.218,-1.305 -2.814,-1.966 -4.747,-1.966 z"
         id="path89"
         style="fill:#aa3939;fill-opacity:1"
         inkscape:connector-curvature="0" />
      <path
         d="m 368.737,336.173 c -1.111,-1.008 -2.762,-1.519 -4.904,-1.519 h -30.943 -3.75 -21.976 c -1.685,0 -3.11,0.261 -4.234,0.773 -1.219,0.558 -2.125,1.456 -2.697,2.673 -0.528,1.127 -0.796,2.567 -0.796,4.281 v 41.455 c 0,2.488 0.606,4.406 1.801,5.702 1.216,1.319 2.804,1.988 4.715,1.988 1.884,0 3.456,-0.661 4.675,-1.966 1.196,-1.284 1.803,-3.21 1.803,-5.725 v -16.713 h 16.933 c 1.895,0 3.374,-0.458 4.398,-1.362 1.063,-0.937 1.602,-2.201 1.602,-3.755 0,-1.546 -0.527,-2.813 -1.57,-3.764 -1.015,-0.923 -2.505,-1.392 -4.43,-1.392 H 312.43 v -11.011 l 27.514,-0.039 0.065,38.035 c 0,2.488 0.605,4.408 1.799,5.702 1.217,1.319 2.803,1.988 4.715,1.988 1.887,0 3.455,-0.663 4.661,-1.971 1.182,-1.284 1.781,-3.207 1.781,-5.72 v -38.102 h 10.868 c 2.112,0 3.754,-0.501 4.877,-1.49 1.16,-1.022 1.747,-2.378 1.747,-4.032 0,-1.641 -0.577,-3.001 -1.72,-4.036 z"
         id="path91"
         style="fill:#aa3939;fill-opacity:1"
         inkscape:connector-curvature="0" />
    </g>
  </g>
</svg>
